# xmcd CD database file
#
# Track frame offsets:
#	150
#	12548
#	26546
#	38969
#	52124
#	64055
#	76548
#	90841
#	105102
#	117244
#	128851
#	140875
#	154604
#	166084
#	178239
#	190643
#	204256
#	216198
#	228694
#	242342
#	254762
#	269396
#
# Disc length: 3786 seconds
#
# Revision: 0
# Processed by: cddbd v1.5.2PL0 Copyright (c) Steve Scherf et al.
# Submitted via: CDex 1.51
#
DISCID=270ec816
DTITLE=Georgia White - Complete Works Vol 3
DYEAR=1994
DGENRE=Blues
TTITLE0=Georgia Man
TTITLE1=All Night Blues
TTITLE2=Away All The Time
TTITLE3=The Stuff Is Here
TTITLE4=Strewin' Your Mess
TTITLE5=Fare Thee Well Honey Fare Thee Well
TTITLE6=Careless Love
TTITLE7=Rock Me Daddy
TTITLE8=Red Cap Porter
TTITLE9=Alley Boogie
TTITLE10=I'm Blue And Lonesome
TTITLE11=Almost Afraid To Love
TTITLE12=Too Much Trouble
TTITLE13=Crazy Blues
TTITLE14='Taint Nobody's Business If I Do
TTITLE15=Holding My Own
TTITLE16=The Blues Ain't Nothin' But...???
TTITLE17=Dead Man's Blues
TTITLE18=Love Sick Blues
TTITLE19=My Worried Mind Blues
TTITLE20=The Way I'm Feelin'
TTITLE21=Married Woman Blues
EXTD=YEAR: 1994
EXTT0=
EXTT1=
EXTT2=
EXTT3=
EXTT4=
EXTT5=
EXTT6=
EXTT7=
EXTT8=
EXTT9=
EXTT10=
EXTT11=
EXTT12=
EXTT13=
EXTT14=
EXTT15=
EXTT16=
EXTT17=
EXTT18=
EXTT19=
EXTT20=
EXTT21=
PLAYORDER=
